Coordinates
version=1
nRows=16
nColumns=36
inDegrees=yes

Units are S.I. units (second, meters, Newtons, ...)
If the header above contains a line with 'inDegrees', this indicates whether rotational values are in degrees (yes) or radians (no).

endheader
time	pelvis_tilt	pelvis_list	pelvis_rotation	pelvis_tx	pelvis_ty	pelvis_tz	hip_flexion_r	hip_adduction_r	hip_rotation_r	knee_angle_r	knee_angle_r_beta	ankle_angle_r	subtalar_angle_r	mtp_angle_r	hip_flexion_l	hip_adduction_l	hip_rotation_l	knee_angle_l	knee_angle_l_beta	ankle_angle_l	subtalar_angle_l	mtp_angle_l	lumbar_extension	lumbar_bending	lumbar_rotation	arm_flex_r	arm_add_r	arm_rot_r	elbow_flex_r	pro_sup_r	arm_flex_l	arm_add_l	arm_rot_l	elbow_flex_l	pro_sup_l
      3.06666670	     -9.16226081	      0.51371485	      0.48417971	      0.01142394	      1.13080083	      0.02477162	     28.56717310	      0.08644955	      4.59992704	     56.92862021	      0.99359186	     41.78654013	     -7.61575679	     -7.49999987	     28.75694089	      0.55429498	      4.83589327	     59.63856596	      1.04088934	     39.57547087	    -16.12105292	     -7.49999987	    -25.76704125	      0.31376149	     -1.13235683	     23.20491447	    -17.52522027	      8.21553163	     98.86631997	     94.26766227	     18.54634117	    -17.06426313	     -2.50406556	     95.76705251	     88.86668898
      3.08333330	    -10.05578957	      0.18270328	     -0.15150346	      0.03420682	      1.14937599	      0.02461565	     26.56670745	      0.33230558	      4.42063076	     53.44191050	      0.93273730	     38.50200420	     -6.89859200	     -7.49999987	     26.84585796	     -0.27855215	      4.36486856	     56.38343997	      0.98407667	     36.52149103	    -15.27748665	     -7.49999987	    -21.05468155	      0.18218227	     -0.77453827	     19.92587425	    -18.22933814	      8.45810000	     99.44249065	     93.56423282	     14.78719050	    -17.97104786	     -2.98509828	     96.33782377	     88.34588527
      3.10000000	    -10.92011613	     -0.08698622	     -0.64958902	      0.05613273	      1.16991538	      0.02577786	     24.82451097	      0.48272146	      4.28400516	     50.18443008	      0.87588354	     33.92103296	     -7.68618391	     -7.49999987	     24.76754461	     -1.00165576	      3.71403564	     52.96580102	      0.92442762	     31.60431674	    -16.08579898	     -7.49999987	    -17.43999993	      0.17769950	     -0.90633427	     17.08233228	    -18.26142760	      8.22022661	    100.72705354	     93.22439542	     10.17069539	    -18.35182664	     -5.78152760	     99.36904739	     88.20067806
      3.11666670	    -11.04832738	     -0.35920665	     -0.74819483	      0.08067018	      1.18628652	      0.02555643	     22.22801487	      0.28379032	      3.41983793	     47.31877710	      0.82586846	     28.55362035	     -7.48165288	     -7.49999987	     22.06569719	     -1.69458214	      2.86393676	     49.75620219	      0.86840955	     26.49310504	    -15.22838639	     -7.49999987	    -13.97472352	      0.57757766	     -3.18048472	     17.76270054	    -18.10128164	     11.97837923	     97.48129363	     94.88453416	      4.42899923	    -19.02743418	    -10.17159615	    101.54807942	     90.38390014
      3.13333330	    -11.22601786	     -0.40511030	     -1.12986718	      0.09912716	      1.20794439	      0.02647256	     20.72475559	     -0.01280191	      2.75071638	     45.92885437	      0.80160973	     21.95308804	     -7.35119085	     -7.49999987	     19.83365596	     -2.34906583	      1.53156642	     46.81061367	      0.81699933	     20.22103803	    -14.49510865	     -7.49999987	    -11.22565973	      0.39385860	     -3.01267768	     15.81378050	    -18.79804675	     12.61396945	     96.39943192	     93.95284753	      3.06112791	    -19.78871110	    -10.60342552	    100.70473143	     89.71361523
      3.15000000	    -10.68326280	     -0.41285747	     -1.07434622	      0.12208334	      1.23099498	      0.02585445	     19.12054065	     -0.48163095	      1.96801703	     45.93973630	      0.80179966	     15.45916843	     -7.23372184	     -7.49999987	     17.74790443	     -2.92837299	      0.46991349	     45.00588426	      0.78550086	     12.32781790	    -14.78344446	     -7.49999987	     -9.47506122	      0.26137325	     -3.21597189	     13.91527154	    -19.51901098	     13.09138731	     94.02399591	     93.39984206	      1.82216597	    -20.54666435	    -10.63960454	     99.55288716	     89.34030456
      3.16666670	     -9.89360514	     -0.29140382	     -0.95927360	      0.13916431	      1.25154389	      0.02650334	     18.35267211	     -0.98238033	      1.46859159	     47.37168977	      0.82679196	      8.46323550	     -7.85201258	     -7.49999987	     17.15752753	     -3.45101134	     -0.23112744	     45.56345230	      0.79523226	      4.57063106	    -15.66330369	     -7.49999987	     -8.75955163	     -0.01478793	     -2.95605308	     12.51990806	    -20.41433215	     13.88406624	     91.74157708	     91.44019983	      0.27531818	    -21.23911741	    -10.18232218	     99.21064195	     87.72542513
      3.18333330	     -9.08667519	      0.04077418	     -0.75182190	      0.15954312	      1.26146542	      0.02614565	     19.16662111	     -1.70750409	      1.38855019	     51.25383481	      0.89454817	      3.02522708	     -8.91103174	     -7.49999987	     17.90198867	     -3.88283959	     -0.70975157	     48.23895974	      0.84192868	     -2.27249969	    -16.65449497	     -7.49999987	     -8.32026155	     -0.32583320	     -4.48602493	     13.92012210	    -20.82479438	     17.34924063	     88.11512717	     92.19652018	     -3.40980023	    -22.19455069	    -13.16475375	    100.32851905	     88.63947828
      3.20000000	     -8.33625757	      0.09309410	     -0.47712396	      0.16784145	      1.27900068	      0.02566906	     21.25888892	     -2.22967944	      1.45738355	     55.19020816	      0.96325085	     -1.70910424	    -11.42773181	     -7.49999987	     19.58458063	     -4.39800865	     -0.46083799	     51.58272531	      0.90028839	     -4.15098882	    -16.40556844	     -7.49999987	     -9.37339069	     -0.37320890	     -4.15134133	     13.42839959	    -21.92053441	     17.94349463	     87.12276927	     90.62673264	     -3.94594550	    -23.79947743	    -13.28342204	    100.71241887	     87.37483005
      3.21666670	     -7.51117344	     -0.06790617	     -0.17706502	      0.18237435	      1.28752456	      0.02524010	     23.99147944	     -2.54989218	      1.44668010	     58.66779927	      1.02394626	     -3.99689702	    -14.27802342	     -7.49999987	     21.53749325	     -5.01933284	      0.13464978	     55.40933667	      0.96707536	     -2.18832260	    -15.87084452	     -7.49999987	    -10.67391239	      0.00254925	     -3.86668762	     14.05298225	    -22.91866609	     18.69509094	     85.77973112	     89.24441464	     -4.14507729	    -25.44782014	    -13.52609254	    101.15432939	     86.21758426
      3.23333330	     -7.24060161	     -0.20496523	      0.53735169	      0.19536956	      1.29491266	      0.02349132	     26.92353781	     -3.05485110	      1.16927723	     60.41637361	      1.05446464	     -3.93388680	    -16.62273323	     -7.49999987	     24.27847566	     -5.53787884	      0.81110929	     58.07910429	      1.01367160	      1.86646373	    -15.07268065	     -7.49999987	    -11.76426779	      0.38580208	     -4.12509141	     14.73660217	    -23.72485551	     19.54778660	     84.76361677	     88.69230983	     -4.25207275	    -26.95894923	    -13.94160751	    101.54194978	     85.75850386
      3.25000000	     -7.09893566	     -0.24413489	      1.32777868	      0.20367876	      1.29993103	      0.02310744	     29.29491638	     -3.59165051	      1.10171532	     60.13615731	      1.04957394	     -0.91849609	    -17.47194317	     -7.49999987	     27.28858310	     -5.91338162	      1.40514139	     59.25618508	      1.03421553	      6.08601441	    -13.98757803	     -7.49999987	    -13.20121967	      0.82161740	     -6.14765922	     18.52025957	    -23.60569085	     23.13731399	     81.69191200	     90.72853374	     -5.71201654	    -28.25996666	    -17.14319486	    102.73155543	     87.76940821
      3.26666670	     -7.28851452	     -0.23681418	      2.10791602	      0.21537107	      1.30975536	      0.02216862	     30.54587382	     -4.11598079	      0.89207404	     56.87164881	      0.99259752	      2.05690383	    -15.98238690	     -7.49999987	     29.83488137	     -6.19251980	      1.81393495	     57.83356031	      1.00938605	      7.71783072	    -13.09843071	     -7.49999987	    -14.59076439	      1.00127832	     -6.34167149	     19.50919662	    -23.77089962	     23.20457760	     80.18584659	     89.83081094	     -3.96792767	    -29.77959850	    -16.53353606	    102.07755417	     87.06965275
      3.28333330	     -7.47895026	     -0.22459847	      2.60903853	      0.23497836	      1.31062984	      0.02073761	     31.00604341	     -4.72359159	      0.64837451	     52.04427864	      0.90834402	      4.24038218	    -13.61242622	     -7.49999987	     30.79701527	     -6.46291104	      1.75901934	     54.18042553	      0.94562682	      9.02424661	    -12.33383383	     -7.49999987	    -15.49603104	      1.27975737	     -6.28843812	     19.87512398	    -24.09132523	     23.56631192	     78.91952053	     89.32858827	     -2.91193408	    -30.75240266	    -16.01261694	    101.08060104	     86.61048010
      3.30000000	     -8.07988678	     -0.06334504	      3.35421996	      0.24998483	      1.29905169	      0.01849939	     32.08700587	     -5.62984706	      0.32471441	     48.14459360	      0.84028168	      6.08135840	    -11.12106660	     -7.49999987	     32.57847898	     -6.37831987	      1.58954380	     50.69887675	      0.88486233	     10.48134718	    -11.54538448	     -7.49999987	    -15.75453766	      1.38962988	     -6.60318248	     20.14688713	    -24.77309911	     23.99988697	     78.72908943	     89.23421297	     -1.87094214	    -32.15656269	    -15.25625573	    100.80957317	     86.47738566
      3.31666670	     -9.17411481	      0.08803988	      4.20793390	      0.26309776	      1.29231508	      0.01846850	     33.66173574	     -6.65815253	      0.05405970	     43.50734020	      0.75934634	      5.44153094	     -8.50362612	     -7.49999987	     34.99919524	     -6.03083191	      1.71934621	     45.98382652	      0.80256918	      9.17563008	    -10.32952844	     -7.49999987	    -15.74498226	      1.52822468	     -7.08015850	     20.15074886	    -25.35609096	     24.17277766	     79.34189018	     89.15938903	     -1.74695384	    -33.69653142	    -15.06361730	    100.72411060	     86.32584953
